<svg width="60" height="60" viewBox="0 0 60 60" fill="none" xmlns="http://www.w3.org/2000/svg">
<g clip-path="url(#clip0)">
<path d="M51.0596 21.4329L40.1326 15.0017C38.6306 14.1348 36.7759 14.1348 35.2638 15.0017L7.25088 31.241H5.16427V33.9929C5.15419 34.7187 5.507 35.4444 6.2227 35.8577L18.7524 43.2163C20.1637 44.0328 21.8874 44.0227 23.2986 43.2163L52.2087 26.4529C52.9143 26.0396 53.2873 25.3441 53.3377 24.6284H53.3579V21.4329H51.0596Z" fill="#99644C"/>
<path d="M52.2186 23.5391L23.2984 40.3025C21.8972 41.119 20.1634 41.119 18.7522 40.3025L6.22249 32.9439C4.81125 32.1274 4.81125 30.1013 6.22249 29.2848L35.2737 12.4508C36.7757 11.5839 38.6304 11.5739 40.1425 12.4508L52.2186 19.5473C53.7508 20.4243 53.7508 22.652 52.2186 23.5391Z" fill="#EBE0DB"/>
<path d="M47.7717 18.6302L47.7616 20.5656C47.7616 21.5433 47.1165 22.5211 45.8262 23.2771C43.2356 24.7892 39.012 24.7892 36.4012 23.2771C35.0908 22.5211 34.4355 21.5232 34.4355 20.5252L34.4456 18.5898C34.4456 19.5878 35.1008 20.5756 36.4113 21.3417C39.022 22.8437 43.2356 22.8437 45.8363 21.3417C47.1266 20.5857 47.7717 19.6079 47.7717 18.6302Z" fill="#FA9269"/>
<path d="M45.8058 15.8775C48.4165 17.3795 48.4266 19.829 45.836 21.3309C43.2454 22.8429 39.0218 22.8429 36.411 21.3309C33.8002 19.8189 33.7901 17.3795 36.3807 15.8674C38.9714 14.3554 43.195 14.3755 45.8058 15.8775Z" fill="#FF6937"/>
<path d="M46.5427 17.5408C46.6133 17.4803 46.6738 17.4299 46.7242 17.4097C46.9863 17.3089 47.2988 17.3392 47.5306 17.5004C48.2564 17.9944 47.46 18.7201 47.8633 19.1939C47.9741 19.3149 48.1153 19.4258 48.1858 19.5669C48.2463 19.6778 48.2665 19.8189 48.2665 19.9499C48.2765 20.1919 48.2463 20.4338 48.1153 20.6455C47.8229 21.1192 47.2786 20.9378 46.9056 21.2604C46.6234 21.5124 46.5629 21.9357 46.2807 22.1978C45.8573 22.591 45.2222 22.3994 44.7585 22.1777C44.6073 22.1071 44.4158 22.097 44.2949 22.2079C44.1638 22.339 44.2445 22.5406 44.1638 22.7018C43.9924 23.0143 43.5892 23.0748 43.2768 22.9942C43.1256 22.9538 42.9844 22.8833 42.8635 22.7825C42.7627 22.6918 42.7022 22.5607 42.5812 22.4902C42.0772 22.1978 41.7143 23.1252 41.0692 22.7926C40.8575 22.6817 40.797 22.4095 40.5551 22.349C40.2728 22.2684 39.9402 22.6212 39.6781 22.6716C39.2346 22.7623 38.8919 22.4498 38.5189 22.2785C37.6318 21.8853 37.0068 22.9639 36.0593 22.5305C35.8779 22.4498 35.7267 22.2986 35.6057 22.1373C35.5049 21.9962 35.4243 21.7442 35.2831 21.6434C35.1823 21.5729 35.0412 21.5023 34.9102 21.5124C34.8194 21.5225 34.7388 21.5829 34.6481 21.6031C34.3759 21.6737 34.0735 21.7442 33.8013 21.6434C33.1058 21.4015 32.9546 20.706 33.5191 20.3027C33.7913 20.1112 34.1138 19.9499 34.1642 19.5568C34.2045 19.2342 33.9525 19.0024 33.9021 18.7C33.8215 18.2161 34.1642 17.9339 34.638 17.8835C35.3335 17.8129 35.9887 18.1657 36.392 18.7302C36.6036 19.0226 36.5734 19.1738 36.9665 19.0528C37.2589 18.9621 37.4403 18.6496 37.783 18.6597C38.2971 18.6697 38.6802 19.073 39.1842 19.0226C39.5773 18.9822 39.92 18.6798 40.162 18.4177C40.9482 17.571 42.0873 18.6294 42.6719 19.204C43.2264 19.7483 43.6296 19.6173 43.8513 18.9016C44.0429 18.3069 44.6376 18.1254 45.1819 18.4278C45.5952 18.6697 46.1799 17.8734 46.5427 17.5408Z" fill="#05A357"/>
<path d="M45.5933 13.2581C44.8978 12.8449 44.0813 12.5525 43.2144 12.361C40.9463 11.8671 38.3255 12.1594 36.5211 13.2581C35.2812 14.0142 34.6562 15.002 34.6562 15.9798C34.6562 16.0504 34.6663 16.1108 34.6764 16.1814C34.6865 16.2419 34.6865 16.2923 34.6865 16.3528C34.6966 16.4233 34.7167 16.4838 34.7369 16.5544C34.747 16.6149 34.7571 16.6653 34.7772 16.7257C34.7974 16.7963 34.8276 16.8568 34.8579 16.9173C34.878 16.9777 34.8982 17.0281 34.9284 17.0886C34.9587 17.1491 34.999 17.2197 35.0393 17.2802C35.0695 17.3306 35.0998 17.391 35.1401 17.4414C35.1804 17.5019 35.2409 17.5725 35.2913 17.633C35.3316 17.6834 35.3619 17.7338 35.4123 17.7842C35.4727 17.8547 35.5433 17.9152 35.6139 17.9858C35.6542 18.0261 35.6945 18.0765 35.7348 18.1168C35.8155 18.1874 35.9062 18.2579 35.9868 18.3285C36.0272 18.3587 36.0675 18.3991 36.1179 18.4394C36.259 18.5402 36.4001 18.641 36.5614 18.7317C38.3658 19.8204 40.9766 20.1127 43.2244 19.6288C44.1014 19.4474 44.928 19.1551 45.6235 18.7317C45.7747 18.641 45.9259 18.5402 46.057 18.4394C46.0872 18.4192 46.1175 18.389 46.1477 18.3688C46.2485 18.2882 46.3493 18.2075 46.44 18.1269C46.4904 18.0866 46.5207 18.0362 46.5711 17.9959C46.6316 17.9253 46.7021 17.8648 46.7626 17.7942C46.8029 17.7438 46.8432 17.6934 46.8836 17.643C46.934 17.5826 46.9844 17.512 47.0247 17.4515C47.0549 17.4011 47.0852 17.3406 47.1154 17.2902C47.1557 17.2298 47.1961 17.1592 47.2263 17.0987C47.2565 17.0483 47.2666 16.9878 47.2969 16.9374C47.3271 16.8669 47.3573 16.8064 47.3775 16.7358C47.3977 16.6854 47.4077 16.6249 47.4178 16.5645C47.438 16.4939 47.4581 16.4334 47.4682 16.3629C47.4783 16.3024 47.4783 16.252 47.4783 16.1915C47.5589 15.1431 46.934 14.0646 45.5933 13.2581Z" fill="#662A16"/>
<path d="M47.4695 16.2022C47.4695 16.2627 47.4695 16.3131 47.4594 16.3736C47.4493 16.4442 47.4292 16.5046 47.409 16.5752C47.3989 16.6357 47.3888 16.6861 47.3687 16.7466C47.3485 16.8171 47.3183 16.8776 47.288 16.9482C47.2679 16.9986 47.2477 17.0591 47.2175 17.1095C47.1872 17.18 47.1469 17.2405 47.1066 17.301C47.0764 17.3514 47.0461 17.4119 47.0159 17.4623C46.9756 17.5227 46.9151 17.5933 46.8748 17.6538C46.8344 17.7042 46.8042 17.7546 46.7538 17.805C46.6933 17.8756 46.6227 17.936 46.5623 18.0066C46.5219 18.0469 46.4816 18.0973 46.4312 18.1376C46.3405 18.2183 46.2397 18.2989 46.1389 18.3796C46.1087 18.3997 46.0784 18.43 46.0482 18.4501C45.9071 18.5509 45.7659 18.6517 45.6147 18.7425C44.9192 19.1658 44.0825 19.4581 43.2156 19.6396C40.9677 20.1134 38.357 19.821 36.5526 18.7425C36.3913 18.6517 36.2502 18.5509 36.1091 18.4501C36.0587 18.4199 36.0183 18.3796 35.978 18.3392C35.8873 18.2687 35.7966 18.1981 35.726 18.1276C35.6756 18.0872 35.6454 18.0469 35.6051 17.9965C35.5345 17.926 35.4639 17.8655 35.4034 17.7949C35.3631 17.7445 35.3228 17.6941 35.2825 17.6437C35.2321 17.5832 35.1817 17.5127 35.1313 17.4522C35.091 17.4018 35.0708 17.3413 35.0305 17.2909C34.9902 17.2304 34.9498 17.1599 34.9196 17.0994C34.8894 17.0389 34.8692 16.9885 34.849 16.928C34.8188 16.8675 34.7886 16.797 34.7684 16.7365C34.7482 16.676 34.7382 16.6256 34.7281 16.5651C34.7079 16.4946 34.6878 16.4341 34.6777 16.3635C34.6676 16.303 34.6676 16.2526 34.6676 16.1922C34.6575 16.1216 34.6474 16.0611 34.6474 15.9905V15.9805L34.6172 17.8756C34.6172 18.8735 35.2522 19.8714 36.5123 20.6375C38.3267 21.7262 40.9476 22.0185 43.2055 21.5347C44.0724 21.3432 44.8889 21.0609 45.5845 20.6375C46.8243 19.8815 47.4493 18.9037 47.4493 17.9159L47.4796 16.0208C47.4796 16.0813 47.4695 16.1418 47.4695 16.2022Z" fill="#C14F29"/>
<path d="M46.5525 11.8959L44.8086 12.1277L41.6636 11.0391C41.6434 11.0491 41.6233 11.0491 41.6031 11.0592C39.9903 11.4927 38.4581 12.2084 37.067 13.1358C36.442 13.549 35.8271 13.9724 35.2626 14.4663C35.0711 14.6377 34.7989 14.7687 34.6578 14.9804C34.4562 15.2728 34.3554 15.6457 34.3151 15.9885C34.2647 16.3816 34.2445 16.805 34.3453 17.188C34.4864 17.7525 34.7586 17.8231 35.2626 17.9743C36.19 18.2464 36.7847 18.8512 37.3392 19.6073C37.7121 20.1113 38.5085 20.3532 39.073 20.0407C39.6677 19.7181 39.6374 18.952 40.4842 18.8714C40.958 18.8311 41.4216 19.0327 41.8954 18.9621C42.4196 18.8815 42.7724 18.4077 43.2562 18.2464C43.9115 18.0347 43.9316 18.8008 44.5566 18.7807C45.2118 18.7605 45.484 18.3271 45.6957 17.7827C45.7461 17.6618 45.7965 17.5307 45.8771 17.4198C46.0989 17.1376 46.3509 17.188 46.6533 17.1678C47.7823 17.0872 47.5303 15.7969 47.5504 14.9905C47.5605 14.5772 47.4295 14.1539 47.3791 13.7406C47.3589 13.5591 47.4295 12.7426 47.3085 12.6317C47.0565 12.3797 46.8045 12.1479 46.5525 11.8959Z" fill="#FFCF70"/>
<path d="M47.6808 13.8527C47.6808 16.151 44.687 18.0158 40.9976 18.0158C37.3083 18.0158 34.3145 16.151 34.3145 13.8527C34.3145 13.6914 34.3346 13.5301 34.3548 13.3789C34.7277 15.4554 37.5603 17.0683 40.9876 17.0683C44.4148 17.0683 47.2474 15.4554 47.6204 13.3789C47.6607 13.5301 47.6808 13.6914 47.6808 13.8527Z" fill="#FF6937"/>
<path d="M40.998 17.0682C44.6612 17.0682 47.6308 15.4164 47.6308 13.3788C47.6308 11.3412 44.6612 9.68945 40.998 9.68945C37.3348 9.68945 34.3652 11.3412 34.3652 13.3788C34.3652 15.4164 37.3348 17.0682 40.998 17.0682Z" fill="#FA9269"/>
<path d="M41.0491 14.0036C40.8374 14.0036 40.666 13.8322 40.666 13.6205V7.45141C40.666 7.23972 40.8374 7.06836 41.0491 7.06836C41.2607 7.06836 41.4321 7.23972 41.4321 7.45141V13.6205C41.4422 13.8322 41.2708 14.0036 41.0491 14.0036Z" fill="#744C3A"/>
<path d="M41.0593 12.1381C41.8665 12.1381 42.5209 11.4837 42.5209 10.6765C42.5209 9.86924 41.8665 9.21484 41.0593 9.21484C40.2521 9.21484 39.5977 9.86924 39.5977 10.6765C39.5977 11.4837 40.2521 12.1381 41.0593 12.1381Z" fill="#E11900"/>
<path d="M41.0491 10.0327C40.8374 10.0327 40.666 9.86132 40.666 9.64963V8.42992C40.666 8.21824 40.8374 8.04688 41.0491 8.04688C41.2607 8.04688 41.4321 8.21824 41.4321 8.42992V9.64963C41.4422 9.86132 41.2708 10.0327 41.0491 10.0327Z" fill="#744C3A"/>
<path d="M47.6613 13.8527C47.6613 16.151 44.6675 18.0158 40.9781 18.0158C37.2887 18.0158 34.2949 16.151 34.2949 13.8527C34.2949 13.6914 34.3151 13.5301 34.3352 13.3789C34.7082 15.4554 37.5105 16.7155 40.9479 16.7155C44.3852 16.7155 47.2279 15.4554 47.6109 13.3789C47.6411 13.5301 47.6613 13.6914 47.6613 13.8527Z" fill="#FF6937"/>
<path d="M36.8244 24.9407L36.8143 26.8761C36.8143 27.8539 36.1692 28.8317 34.8789 29.5877C32.2883 31.0997 28.0647 31.0997 25.4539 29.5877C24.1435 28.8317 23.4883 27.8337 23.4883 26.8358L23.4984 24.9004C23.4984 25.8983 24.1536 26.8862 25.464 27.6523C28.0748 29.1542 32.2883 29.1542 34.889 27.6523C36.1793 26.8963 36.8244 25.9185 36.8244 24.9407Z" fill="#FA9269"/>
<path d="M34.8585 22.188C37.4693 23.69 37.4794 26.1395 34.8887 27.6415C32.2981 29.1434 28.0745 29.1535 25.4637 27.6415C22.8529 26.1294 22.8429 23.69 25.4335 22.178C28.0241 20.6659 32.2477 20.6861 34.8585 22.188Z" fill="#FF6937"/>
<path d="M35.5955 23.8513C35.666 23.7908 35.7265 23.7404 35.7769 23.7203C36.039 23.6195 36.3515 23.6497 36.5833 23.811C37.3091 24.3049 36.5128 25.0307 36.916 25.5045C37.0269 25.6254 37.168 25.7363 37.2386 25.8774C37.299 25.9883 37.3192 26.1294 37.3192 26.2605C37.3293 26.5024 37.299 26.7443 37.168 26.956C36.8757 27.4298 36.3313 27.2483 35.9584 27.5709C35.6761 27.8229 35.6156 28.2463 35.3334 28.5084C34.91 28.9015 34.275 28.71 33.8113 28.4882C33.6601 28.4177 33.4685 28.4076 33.3476 28.5185C33.2165 28.6495 33.2972 28.8511 33.2165 29.0124C33.0452 29.3249 32.642 29.3854 32.3295 29.3047C32.1783 29.2644 32.0372 29.1938 31.9162 29.093C31.8154 29.0023 31.7549 28.8713 31.6339 28.8007C31.1299 28.5084 30.767 29.4358 30.1219 29.1031C29.9102 28.9922 29.8497 28.7201 29.6078 28.6596C29.3256 28.5789 28.9929 28.9317 28.7308 28.9821C28.2873 29.0729 27.9446 28.7604 27.5716 28.589C26.6846 28.1959 26.0596 29.2745 25.112 28.841C24.9306 28.7604 24.7794 28.6092 24.6584 28.4479C24.5576 28.3068 24.477 28.0548 24.3359 27.954C24.2351 27.8834 24.0939 27.8128 23.9629 27.8229C23.8722 27.833 23.7915 27.8935 23.7008 27.9136C23.4286 27.9842 23.1262 28.0548 22.8541 27.954C22.1585 27.712 22.0073 27.0165 22.5718 26.6133C22.844 26.4218 23.1666 26.2605 23.217 25.8674C23.2573 25.5448 23.0053 25.3129 22.9549 25.0105C22.8742 24.5267 23.217 24.2444 23.6907 24.194C24.3863 24.1235 25.0415 24.4763 25.4447 25.0408C25.6564 25.3331 25.6261 25.4843 26.0193 25.3633C26.3116 25.2726 26.493 24.9601 26.8358 24.9702C27.3498 24.9803 27.7329 25.3835 28.2369 25.3331C28.63 25.2928 28.9728 24.9904 29.2147 24.7283C30.001 23.8815 31.14 24.94 31.7247 25.5145C32.2791 26.0589 32.6823 25.9278 32.9041 25.2121C33.0956 24.6174 33.6903 24.436 34.2346 24.7384C34.6479 24.9803 35.2225 24.184 35.5955 23.8513Z" fill="#05A357"/>
<path d="M34.646 19.5687C33.9505 19.1554 33.134 18.8631 32.2671 18.6715C29.999 18.1776 27.3782 18.4699 25.5738 19.5687C24.334 20.3247 23.709 21.3126 23.709 22.2904C23.709 22.3609 23.7191 22.4214 23.7291 22.492C23.7392 22.5524 23.7392 22.6028 23.7392 22.6633C23.7493 22.7339 23.7695 22.7944 23.7896 22.8649C23.7997 22.9254 23.8098 22.9758 23.8299 23.0363C23.8501 23.1068 23.8803 23.1673 23.9106 23.2278C23.9308 23.2883 23.9509 23.3387 23.9812 23.3992C24.0114 23.4597 24.0517 23.5302 24.092 23.5907C24.1223 23.6411 24.1525 23.7016 24.1928 23.752C24.2332 23.8125 24.2936 23.883 24.344 23.9435C24.3844 23.9939 24.4146 24.0443 24.465 24.0947C24.5255 24.1653 24.596 24.2258 24.6666 24.2963C24.7069 24.3366 24.7472 24.387 24.7876 24.4274C24.8682 24.4979 24.9589 24.5685 25.0396 24.639C25.0799 24.6693 25.1202 24.7096 25.1706 24.7499C25.3117 24.8507 25.4529 24.9515 25.6141 25.0423C27.4185 26.1309 30.0293 26.4232 32.2772 25.9394C33.1542 25.7579 33.9807 25.4656 34.6763 25.0423C34.8275 24.9515 34.9787 24.8507 35.1097 24.7499C35.14 24.7298 35.1702 24.6995 35.2004 24.6794C35.3013 24.5987 35.4021 24.5181 35.4928 24.4374C35.5432 24.3971 35.5734 24.3467 35.6238 24.3064C35.6843 24.2358 35.7549 24.1754 35.8153 24.1048C35.8557 24.0544 35.896 24.004 35.9363 23.9536C35.9867 23.8931 36.0371 23.8225 36.0774 23.7621C36.1077 23.7117 36.1379 23.6512 36.1682 23.6008C36.2085 23.5403 36.2488 23.4697 36.279 23.4093C36.3093 23.3589 36.3194 23.2984 36.3496 23.248C36.3798 23.1774 36.4101 23.1169 36.4302 23.0464C36.4504 22.996 36.4605 22.9355 36.4706 22.875C36.4907 22.8044 36.5109 22.744 36.521 22.6734C36.531 22.6129 36.531 22.5625 36.531 22.502C36.6016 21.4537 35.9867 20.3751 34.646 19.5687Z" fill="#662A16"/>
<path d="M36.5222 22.5128C36.5222 22.5733 36.5222 22.6237 36.5121 22.6841C36.5021 22.7547 36.4819 22.8152 36.4617 22.8857C36.4517 22.9462 36.4416 22.9966 36.4214 23.0571C36.4013 23.1277 36.371 23.1882 36.3408 23.2587C36.3206 23.3091 36.3005 23.3696 36.2702 23.42C36.24 23.4906 36.1996 23.551 36.1593 23.6115C36.1291 23.6619 36.0988 23.7224 36.0686 23.7728C36.0283 23.8333 35.9678 23.9039 35.9275 23.9643C35.8872 24.0147 35.8569 24.0651 35.8065 24.1155C35.746 24.1861 35.6755 24.2466 35.615 24.3171C35.5747 24.3575 35.5344 24.4079 35.484 24.4482C35.3932 24.5288 35.2924 24.6095 35.1916 24.6901C35.1614 24.7103 35.1311 24.7405 35.1009 24.7607C34.9598 24.8615 34.8187 24.9623 34.6675 25.053C33.9719 25.4764 33.1353 25.7687 32.2684 25.9501C30.0205 26.4239 27.4097 26.1316 25.6053 25.053C25.444 24.9623 25.3029 24.8615 25.1618 24.7607C25.1114 24.7304 25.0711 24.6901 25.0308 24.6498C24.94 24.5792 24.8493 24.5087 24.7787 24.4381C24.7283 24.3978 24.6981 24.3575 24.6578 24.3071C24.5872 24.2365 24.5167 24.176 24.4562 24.1055C24.4159 24.0551 24.3755 24.0047 24.3352 23.9543C24.2848 23.8938 24.2344 23.8232 24.184 23.7627C24.1437 23.7123 24.1235 23.6518 24.0832 23.6014C24.0429 23.541 24.0026 23.4704 23.9723 23.4099C23.9421 23.3494 23.9219 23.299 23.9018 23.2386C23.8715 23.1781 23.8413 23.1075 23.8211 23.047C23.801 22.9866 23.7909 22.9362 23.7808 22.8757C23.7606 22.8051 23.7405 22.7446 23.7304 22.6741C23.7203 22.6136 23.7203 22.5632 23.7203 22.5027C23.7102 22.4321 23.7002 22.3717 23.7002 22.3011V22.291L23.6699 24.1861C23.6699 25.184 24.305 26.182 25.565 26.9481C27.3794 28.0367 30.0003 28.3291 32.2583 27.8452C33.1252 27.6537 33.9417 27.3714 34.6372 26.9481C35.8771 26.1921 36.5021 25.2143 36.5021 24.2264L36.5323 22.3313C36.5323 22.3918 36.5222 22.4523 36.5222 22.5128Z" fill="#C14F29"/>
<path d="M35.6053 18.2064L33.8615 18.4383L30.7164 17.3496C30.6963 17.3597 30.6761 17.3597 30.6559 17.3698C29.0431 17.8032 27.5109 18.5189 26.1198 19.4463C25.4949 19.8596 24.88 20.283 24.3155 20.7769C24.1239 20.9483 23.8518 21.0793 23.7107 21.291C23.5091 21.5833 23.4083 21.9563 23.3679 22.299C23.3074 22.7728 23.2671 23.3373 23.4889 23.7808C23.6401 24.0832 23.9425 24.184 24.2449 24.2546C25.1925 24.4965 25.384 25.6154 26.2206 26.0388C26.5734 26.2202 26.9666 26.2001 27.3395 26.0892C27.6924 25.9783 27.8234 25.696 28.1056 25.4944C28.7004 25.0811 29.0733 25.6557 29.5068 25.948C29.7386 26.1093 30.0209 26.3311 30.3233 26.3009C30.8676 26.2404 31.1499 25.5146 31.3515 25.0912C31.7446 24.2546 32.7022 24.0126 33.1659 24.94C33.3776 25.3735 33.1962 27.0065 33.9824 26.9359C34.6175 26.8754 34.4259 25.6255 34.4159 25.2223C34.4159 24.8795 34.3755 24.4562 34.5167 24.1336C34.6578 23.8211 35.1316 23.3776 35.434 23.7909C35.4743 23.8514 35.5045 23.9219 35.5449 23.9824C35.8473 24.436 36.3714 24.2142 36.5428 23.8211C36.7746 23.307 36.6234 22.6518 36.6033 22.1075C36.573 21.422 36.5226 20.7366 36.4319 20.0511C36.4118 19.8697 36.4823 19.0532 36.3614 18.9423C36.1093 18.6903 35.8573 18.4584 35.6053 18.2064Z" fill="#FFCF70"/>
<path d="M36.7336 20.1632C36.7336 22.4615 33.7397 24.3264 30.0504 24.3264C26.361 24.3264 23.3672 22.4615 23.3672 20.1632C23.3672 20.0019 23.3873 19.8407 23.4075 19.6895C23.7805 21.766 26.613 23.3788 30.0403 23.3788C33.4676 23.3788 36.3001 21.766 36.6731 19.6895C36.7134 19.8407 36.7336 20.0019 36.7336 20.1632Z" fill="#FF6937"/>
<path d="M30.0508 23.3787C33.714 23.3787 36.6836 21.7269 36.6836 19.6894C36.6836 17.6518 33.714 16 30.0508 16C26.3876 16 23.418 17.6518 23.418 19.6894C23.418 21.7269 26.3876 23.3787 30.0508 23.3787Z" fill="#FA9269"/>
<path d="M30.1018 20.3141C29.8901 20.3141 29.7188 20.1427 29.7188 19.9311V13.762C29.7188 13.5503 29.8901 13.3789 30.1018 13.3789C30.3135 13.3789 30.4848 13.5503 30.4848 13.762V19.9311C30.4949 20.1427 30.3236 20.3141 30.1018 20.3141Z" fill="#744C3A"/>
<path d="M30.112 18.4487C30.9193 18.4487 31.5737 17.7943 31.5737 16.987C31.5737 16.1798 30.9193 15.5254 30.112 15.5254C29.3048 15.5254 28.6504 16.1798 28.6504 16.987C28.6504 17.7943 29.3048 18.4487 30.112 18.4487Z" fill="#E11900"/>
<path d="M30.1018 16.3432C29.8901 16.3432 29.7188 16.1719 29.7188 15.9602V14.7405C29.7188 14.5288 29.8901 14.3574 30.1018 14.3574C30.3135 14.3574 30.4848 14.5288 30.4848 14.7405V15.9602C30.4949 16.1719 30.3236 16.3432 30.1018 16.3432Z" fill="#744C3A"/>
<path d="M36.7844 20.1632C36.7844 22.4615 33.7905 24.3264 30.1012 24.3264C26.4118 24.3264 23.418 22.4615 23.418 20.1632C23.418 20.0019 23.4381 19.8407 23.4583 19.6895C23.8313 21.766 26.6336 23.026 30.0709 23.026C33.5083 23.026 36.3509 21.766 36.734 19.6895C36.7642 19.8407 36.7844 20.0019 36.7844 20.1632Z" fill="#FF6937"/>
<path d="M25.8791 31.2513L25.869 33.1867C25.869 34.1644 25.2239 35.1422 23.9336 35.8982C21.343 37.4103 17.1194 37.4103 14.5086 35.8982C13.1982 35.1422 12.543 34.1443 12.543 33.1463L12.553 31.2109C12.553 32.2089 13.2083 33.1967 14.5187 33.9628C17.1295 35.4648 21.343 35.4648 23.9437 33.9628C25.234 33.2068 25.8791 32.229 25.8791 31.2513Z" fill="#FA9269"/>
<path d="M23.9132 28.4986C26.524 30.0006 26.534 32.45 23.9434 33.952C21.3528 35.454 17.1292 35.464 14.5184 33.952C11.9076 32.44 11.8975 30.0006 14.4882 28.4885C17.0788 26.9765 21.3024 26.9966 23.9132 28.4986Z" fill="#FF6937"/>
<path d="M24.6499 30.1619C24.7204 30.1014 24.7809 30.051 24.8313 30.0308C25.0934 29.93 25.4059 29.9602 25.6377 30.1215C26.3635 30.6155 25.5672 31.3412 25.9704 31.815C26.0812 31.936 26.2224 32.0469 26.2929 32.188C26.3534 32.2989 26.3736 32.44 26.3736 32.571C26.3837 32.813 26.3534 33.0549 26.2224 33.2666C25.93 33.7403 25.3857 33.5589 25.0127 33.8815C24.7305 34.1335 24.67 34.5568 24.3878 34.8189C23.9644 35.212 23.3293 35.0205 22.8657 34.7988C22.7144 34.7282 22.5229 34.7181 22.402 34.829C22.2709 34.96 22.3516 35.1616 22.2709 35.3229C22.0996 35.6354 21.6963 35.6959 21.3839 35.6153C21.2327 35.5749 21.0915 35.5044 20.9706 35.4036C20.8698 35.3129 20.8093 35.1818 20.6883 35.1112C20.1843 34.8189 19.8214 35.7463 19.1763 35.4137C18.9646 35.3028 18.9041 35.0306 18.6622 34.9701C18.3799 34.8895 18.0473 35.2423 17.7852 35.2927C17.3417 35.3834 16.999 35.0709 16.626 34.8996C15.7389 34.5064 15.114 35.585 14.1664 35.1516C13.985 35.0709 13.8338 34.9197 13.7128 34.7584C13.612 34.6173 13.5314 34.3653 13.3902 34.2645C13.2894 34.1939 13.1483 34.1234 13.0173 34.1335C12.9265 34.1435 12.8459 34.204 12.7552 34.2242C12.4931 34.3149 12.1907 34.3754 11.9185 34.2847C11.223 34.0427 11.0718 33.3472 11.6363 32.944C11.9084 32.7525 12.231 32.5912 12.2814 32.1981C12.3217 31.8755 12.0697 31.6436 12.0193 31.3412C11.9387 30.8574 12.2814 30.5751 12.7552 30.5247C13.4507 30.4542 14.1059 30.807 14.5091 31.3715C14.7208 31.6638 14.6906 31.815 15.0837 31.694C15.376 31.6033 15.5575 31.2908 15.9002 31.3009C16.4143 31.311 16.7974 31.7142 17.3014 31.6638C17.6945 31.6235 18.0372 31.3211 18.2791 31.059C19.0654 30.2123 20.2045 31.2707 20.7891 31.8453C21.3435 32.3896 21.7467 32.2585 21.9685 31.5428C22.16 30.9481 22.7548 30.7667 23.2991 31.0691C23.7023 31.2908 24.2769 30.4945 24.6499 30.1619Z" fill="#05A357"/>
<path d="M23.7007 25.8792C23.0052 25.4659 22.1887 25.1736 21.3218 24.9821C19.0537 24.4882 16.4329 24.7805 14.6285 25.8792C13.3886 26.6353 12.7637 27.6231 12.7637 28.6009C12.7637 28.6715 12.7738 28.7319 12.7838 28.8025C12.7939 28.863 12.7939 28.9134 12.7939 28.9739C12.804 29.0444 12.8242 29.1049 12.8443 29.1755C12.8544 29.236 12.8645 29.2864 12.8846 29.3468C12.9048 29.4174 12.935 29.4779 12.9653 29.5384C12.9854 29.5988 13.0056 29.6492 13.0358 29.7097C13.0661 29.7702 13.1064 29.8408 13.1467 29.9012C13.177 29.9516 13.2072 30.0121 13.2475 30.0625C13.2878 30.123 13.3483 30.1936 13.3987 30.2541C13.439 30.3045 13.4693 30.3549 13.5197 30.4053C13.5802 30.4758 13.6507 30.5363 13.7213 30.6069C13.7616 30.6472 13.8019 30.6976 13.8423 30.7379C13.9229 30.8085 14.0136 30.879 14.0943 30.9496C14.1346 30.9798 14.1749 31.0202 14.2253 31.0605C14.3664 31.1613 14.5076 31.2621 14.6688 31.3528C16.4732 32.4415 19.084 32.7338 21.3319 32.2499C22.2089 32.0685 23.0354 31.7762 23.731 31.3528C23.8822 31.2621 24.0334 31.1613 24.1644 31.0605C24.1947 31.0403 24.2249 31.0101 24.2551 30.9899C24.3559 30.9093 24.4567 30.8286 24.5475 30.748C24.5979 30.7077 24.6281 30.6573 24.6785 30.6169C24.739 30.5464 24.8095 30.4859 24.87 30.4153C24.9104 30.3649 24.9507 30.3145 24.991 30.2641C25.0414 30.2037 25.0918 30.1331 25.1321 30.0726C25.1624 30.0222 25.1926 29.9617 25.2228 29.9113C25.2632 29.8508 25.3035 29.7803 25.3337 29.7198C25.364 29.6694 25.374 29.6089 25.4043 29.5585C25.4345 29.488 25.4648 29.4275 25.4849 29.3569C25.5051 29.3065 25.5152 29.246 25.5252 29.1856C25.5454 29.115 25.5656 29.0545 25.5756 28.9839C25.5857 28.9235 25.5857 28.8731 25.5857 28.8126C25.6563 27.7642 25.0414 26.6857 23.7007 25.8792Z" fill="#662A16"/>
<path d="M25.5769 28.8217C25.5769 28.8822 25.5769 28.9326 25.5668 28.9931C25.5567 29.0636 25.5366 29.1241 25.5164 29.1947C25.5063 29.2551 25.4963 29.3055 25.4761 29.366C25.4559 29.4366 25.4257 29.4971 25.3955 29.5676C25.3753 29.618 25.3551 29.6785 25.3249 29.7289C25.2947 29.7995 25.2543 29.86 25.214 29.9204C25.1838 29.9708 25.1535 30.0313 25.1233 30.0817C25.083 30.1422 25.0225 30.2128 24.9822 30.2732C24.9418 30.3236 24.9116 30.374 24.8612 30.4244C24.8007 30.495 24.7302 30.5555 24.6697 30.6261C24.6294 30.6664 24.589 30.7168 24.5386 30.7571C24.4479 30.8377 24.3471 30.9184 24.2463 30.999C24.2161 31.0192 24.1858 31.0494 24.1556 31.0696C24.0145 31.1704 23.8733 31.2712 23.7221 31.3619C23.0266 31.7853 22.1899 32.0776 21.323 32.259C19.0752 32.7328 16.4644 32.4405 14.66 31.3619C14.4987 31.2611 14.3475 31.1603 14.2064 31.0595C14.156 31.0293 14.1157 30.9889 14.0754 30.9486C13.9846 30.8781 13.8939 30.8075 13.8234 30.7369C13.773 30.6966 13.7427 30.6563 13.7024 30.6059C13.6318 30.5353 13.5613 30.4748 13.5008 30.4043C13.4605 30.3539 13.4201 30.3035 13.3798 30.2531C13.3294 30.1926 13.279 30.1321 13.2286 30.0616C13.1883 30.0112 13.1681 29.9507 13.1278 29.9003C13.0875 29.8398 13.0472 29.7692 13.0169 29.7087C12.9867 29.6483 12.9665 29.5979 12.9464 29.5374C12.9161 29.4769 12.8859 29.4063 12.8657 29.3459C12.8456 29.2854 12.8355 29.235 12.8254 29.1745C12.8053 29.1039 12.7851 29.0435 12.775 28.9729C12.7649 28.9124 12.7649 28.862 12.7649 28.8015C12.7549 28.731 12.7448 28.6705 12.7448 28.5999V28.5898L12.7246 30.4849C12.7246 31.4829 13.3597 32.4808 14.6197 33.2469C16.4341 34.3356 19.055 34.6279 21.313 34.1441C22.1799 33.9525 22.9964 33.6703 23.6919 33.2469C24.9318 32.4909 25.5567 31.5131 25.5567 30.5252L25.587 28.6302C25.587 28.6906 25.5769 28.7612 25.5769 28.8217Z" fill="#C14F29"/>
<path d="M24.6604 24.517L22.9166 24.7488L19.7715 23.6602C19.7514 23.6702 19.7312 23.6702 19.711 23.6803C18.0982 24.1138 16.566 24.8295 15.1749 25.7568C14.55 26.1701 13.9351 26.5935 13.3706 27.0874C13.1791 27.2588 12.9069 27.3898 12.7658 27.6015C12.5642 27.8939 12.4634 28.2668 12.423 28.6096C12.3525 29.174 12.3122 30.1921 12.9371 30.5147C13.0178 30.555 13.1085 30.5752 13.1992 30.5651C13.6024 30.5651 13.7939 30.1921 14.1568 30.1014C14.8625 29.9301 15.054 30.8574 15.1649 31.3514C15.2657 31.7949 15.3564 32.2183 15.5983 32.6013C15.7092 32.7828 15.8705 32.9441 16.062 33.0348C16.5862 33.2666 17.1607 33.0348 17.3926 32.5308C17.4833 32.3292 17.5841 32.057 17.7353 31.8957C17.8361 31.7848 17.947 31.6739 18.0982 31.6538C18.2494 31.6235 18.4006 31.6941 18.5417 31.7747C18.7232 31.8755 18.9147 32.0268 19.1264 32.0268C19.3683 32.0167 19.6405 31.9058 19.832 31.7546C20.2655 31.3816 20.4267 30.797 21.0517 30.6659C21.213 30.6357 21.3844 30.6458 21.5456 30.6659C21.6968 30.6861 21.8279 30.7264 21.9589 30.797C22.1404 30.8978 22.3319 30.9986 22.5335 31.0288C22.8158 31.0691 23.1484 30.9582 23.3802 30.7869C23.5617 30.6458 23.6827 30.4139 23.8641 30.2627C24.2068 29.9805 24.6403 29.9099 25.0536 29.7688C25.7693 29.5269 25.8499 28.66 25.7693 28.0148C25.6987 27.4705 25.5777 26.9161 25.4971 26.3717C25.4769 26.1903 25.5475 25.3738 25.4265 25.2629C25.1644 25.0008 24.9124 24.769 24.6604 24.517Z" fill="#FFCF70"/>
<path d="M19.1054 29.6893C22.7686 29.6893 25.7382 28.0375 25.7382 25.9999C25.7382 23.9623 22.7686 22.3105 19.1054 22.3105C15.4423 22.3105 12.4727 23.9623 12.4727 25.9999C12.4727 28.0375 15.4423 29.6893 19.1054 29.6893Z" fill="#FA9269"/>
<path d="M19.1565 26.6246C18.9448 26.6246 18.7734 26.4533 18.7734 26.2416V20.0725C18.7734 19.8608 18.9448 19.6895 19.1565 19.6895C19.3682 19.6895 19.5395 19.8608 19.5395 20.0725V26.2416C19.5496 26.4533 19.3682 26.6246 19.1565 26.6246Z" fill="#744C3A"/>
<path d="M19.1667 24.7494C19.974 24.7494 20.6283 24.095 20.6283 23.2878C20.6283 22.4806 19.974 21.8262 19.1667 21.8262C18.3595 21.8262 17.7051 22.4806 17.7051 23.2878C17.7051 24.095 18.3595 24.7494 19.1667 24.7494Z" fill="#E11900"/>
<path d="M19.1565 22.6538C18.9448 22.6538 18.7734 22.4824 18.7734 22.2707V21.051C18.7734 20.8393 18.9448 20.668 19.1565 20.668C19.3682 20.668 19.5395 20.8393 19.5395 21.051V22.2707C19.5496 22.4824 19.3682 22.6538 19.1565 22.6538Z" fill="#744C3A"/>
<path d="M25.7883 26.4738C25.7883 28.7721 22.7944 30.6369 19.1051 30.6369C15.4157 30.6369 12.4219 28.7721 12.4219 26.4738C12.4219 26.3125 12.442 26.1512 12.4622 26C12.8352 28.0765 15.6375 29.3366 19.0748 29.3366C22.5122 29.3366 25.3548 28.0765 25.7379 26C25.7681 26.1512 25.7883 26.3125 25.7883 26.4738Z" fill="#FF6937"/>
<path d="M38.1261 50.3022L38.8317 52.7819C39.749 53.0541 40.7369 52.9432 41.5735 52.4896L54.1536 45.5342L43.9021 35.6758L37.0273 39.8893L38.1261 50.3022Z" fill="#A1BDCA"/>
<path d="M26.3926 45.6152L38.8316 52.7822L38.8416 52.7218C39.0029 51.875 39.5271 51.1291 40.2831 50.6956L53.5185 43.0649L40.7972 35.666L26.3926 43.9721C25.7676 44.3451 25.7676 45.2523 26.3926 45.6152Z" fill="#CCDFE5"/>
<path d="M38.6201 45.0102L29.2656 44.1836L32.4711 46.5928C34.3965 48.0443 36.7351 48.4879 39.114 48.4979C40.9688 48.508 43.2973 47.6915 44.769 46.5928L47.9745 44.1836L38.6201 45.0102Z" fill="#662A16"/>
<path d="M48.5995 42.9844C48.5995 43.8916 47.7024 44.7081 46.2004 45.3532C44.386 46.1294 41.6744 46.6132 38.6504 46.6132C35.6263 46.6132 32.9248 46.1294 31.1003 45.3532C29.5983 44.7081 28.7012 43.9017 28.7012 42.9844C28.7012 40.9784 33.1566 39.3555 38.6504 39.3555C44.1441 39.3555 48.5995 40.9784 48.5995 42.9844Z" fill="#C14F29"/>
<path d="M47.8635 42.9747C47.8635 43.4788 47.1982 44.0735 46.0793 44.5775C46.0289 44.6077 45.9584 44.6279 45.908 44.6581C44.1137 45.4242 41.4626 45.8577 38.6603 45.8577C35.8378 45.8577 33.1968 45.4242 31.4025 44.6581C31.3521 44.6279 31.2816 44.6077 31.2312 44.5775C30.1122 44.0735 29.457 43.4788 29.457 42.9747C29.457 41.8054 33.0456 40.0918 38.6704 40.0918C44.2649 40.0918 47.8635 41.8054 47.8635 42.9747Z" fill="#662A16"/>
<path d="M46.0786 44.5874C46.0282 44.6177 45.9577 44.6378 45.9073 44.6681C44.113 45.4342 41.4619 45.8676 38.6596 45.8676C35.8371 45.8676 33.1961 45.4342 31.4018 44.6681C31.3514 44.6378 31.2809 44.6177 31.2305 44.5874C31.9058 43.3173 34.9803 42.3496 38.6697 42.3496C42.359 42.3496 45.4033 43.3072 46.0786 44.5874Z" fill="#142328"/>
<path d="M37.8641 45.8568C37.6423 45.8568 37.4206 45.8467 37.1988 45.8366C35.3642 45.7358 33.6506 45.4435 32.2797 44.9899C31.9974 44.4153 32.1789 43.6996 32.7433 43.3367C33.5195 42.8327 34.4771 42.6513 35.3945 42.8226L35.6263 42.873C36.2714 43.0041 36.8662 43.2964 37.35 43.7298C37.5516 43.9113 37.7331 44.1129 37.8943 44.3347C38.227 44.7984 38.1968 45.4233 37.8641 45.8568Z" fill="#997328"/>
<path d="M41.8159 44.9803C41.6043 45.2827 41.3422 45.5448 41.0398 45.7565C41.0398 45.7565 41.0297 45.7665 41.0196 45.7665C40.2535 45.8371 39.4572 45.8774 38.6507 45.8774C38.3887 45.8774 38.1266 45.8774 37.8645 45.8573C37.6427 45.8573 37.421 45.8472 37.1992 45.8371C36.6649 45.4641 36.544 44.7384 36.9169 44.2142C37.048 44.0327 37.1891 43.8715 37.3504 43.7303C37.7838 43.307 38.3383 43.0247 38.933 42.9138L39.1548 42.8735C39.9713 42.7223 40.818 42.8836 41.5135 43.3372C41.6244 43.4078 41.7252 43.5086 41.7857 43.6094C42.0982 44.0025 42.1183 44.5468 41.8159 44.9803Z" fill="#0F462D"/>
<path d="M45.8786 44.2336C45.7879 44.4352 45.6871 44.6267 45.5661 44.7981C44.3363 45.2718 42.7638 45.6045 41.0401 45.7658C41.0401 45.7557 41.0401 45.7557 41.0401 45.7557C40.9091 45.4331 40.9091 45.0501 41.0703 44.6872C41.2518 44.284 41.4937 43.9211 41.786 43.6086C42.0985 43.2759 42.4513 43.0139 42.8445 42.8223L43.0461 42.7316C43.8021 42.3586 44.6387 42.3183 45.3645 42.6106C45.9391 42.8425 46.1709 43.5783 45.8786 44.2336Z" fill="#997328"/>
<path d="M34.7094 39.8593L34.4977 39.7786C33.6812 39.4662 32.774 39.4762 31.9675 39.819C31.3325 40.0911 31.0402 40.827 31.3325 41.462C31.7054 42.2584 32.3607 42.8733 33.1772 43.1858L33.3888 43.2563C34.2053 43.5688 35.1126 43.5587 35.919 43.216C36.554 42.9438 36.8464 42.208 36.554 41.5729C36.1811 40.7867 35.5259 40.1718 34.7094 39.8593Z" fill="#BC8B2C"/>
<path d="M31.6542 40.867C31.7147 41.0081 31.8861 41.0686 32.0272 41.0081C32.1683 40.9477 32.2288 40.7763 32.1683 40.6352C32.1078 40.4941 31.9365 40.4336 31.7953 40.4941C31.6542 40.5646 31.5937 40.7259 31.6542 40.867Z" fill="black"/>
<path d="M36.5928 45.1726L36.8448 45.1625C37.8024 45.1323 38.7197 44.7291 39.3951 44.0335C39.9294 43.4892 39.8991 42.6122 39.3346 42.0981C38.6189 41.453 37.6815 41.1103 36.7239 41.1405L36.4718 41.1506C35.5142 41.1808 34.5969 41.584 33.9216 42.2796C33.3873 42.8239 33.4175 43.7009 33.982 44.215C34.6977 44.8601 35.6352 45.2028 36.5928 45.1726Z" fill="#156A41"/>
<path d="M39.2439 42.8339C39.1229 42.7129 38.9213 42.723 38.8105 42.844C38.6895 42.9649 38.6996 43.1665 38.8205 43.2774C38.9415 43.3984 39.1431 43.3883 39.254 43.2673C39.3749 43.1464 39.3749 42.9548 39.2439 42.8339Z" fill="black"/>
<path d="M43.862 44.1633L44.0837 44.0928C44.9204 43.8307 45.626 43.2561 46.0393 42.49C46.372 41.8852 46.1401 41.1191 45.5151 40.8066C44.7289 40.4135 43.8317 40.3429 42.9951 40.5949L42.7733 40.6655C41.9366 40.9276 41.231 41.5021 40.8177 42.2682C40.4851 42.8731 40.7169 43.6392 41.3419 43.9516C42.1181 44.3448 43.0253 44.4254 43.862 44.1633Z" fill="#156A41"/>
<path d="M45.6257 41.4828C45.4845 41.4123 45.3232 41.4627 45.2426 41.6038C45.172 41.7449 45.2224 41.9062 45.3636 41.9868C45.5047 42.0574 45.666 42.007 45.7466 41.8659C45.8071 41.7248 45.7567 41.5534 45.6257 41.4828Z" fill="black"/>
<path d="M41.8246 42.6718L42.0363 42.561C42.8528 42.1477 43.4878 41.432 43.7902 40.5752C44.0322 39.8897 43.6592 39.1438 42.9637 38.9321C42.0867 38.6599 41.1391 38.7406 40.3226 39.1538L40.1109 39.2647C39.2944 39.678 38.6594 40.3937 38.357 41.2505C38.1151 41.936 38.488 42.6819 39.1836 42.8936C40.0605 43.1658 41.0081 43.0851 41.8246 42.6718Z" fill="#BC8B2C"/>
<path d="M43.1848 39.597C43.0336 39.5465 42.8622 39.6272 42.8118 39.7885C42.7614 39.9397 42.842 40.111 43.0033 40.1614C43.1545 40.2118 43.3259 40.1312 43.3763 39.9699C43.4267 39.8086 43.346 39.6474 43.1848 39.597Z" fill="black"/>
</g>
<defs>
<clipPath id="clip0">
<rect width="49" height="45.865" fill="white" transform="translate(5.16406 7.06836)"/>
</clipPath>
</defs>
</svg>
